<svg xmlns="http://www.w3.org/2000/svg" xmlns:xlink="http://www.w3.org/1999/xlink" x="0px" y="0px" viewBox="0 0 373 93" enable-background="new 0 0 373 93"><path fill="#FFFFFF" d="M372,22.3c-0.5,1.5-1,3.6-1.9,5.5c-0.3,0.7-1.6,0.9-2.4,1.3c-0.2-0.8-0.7-1.7-0.6-2.5c0.1-2,0.7-4.1,0.8-6.1c0.1-1.5,0.3-2.9,1.9-3.1c1.8-0.2,1.7,1.5,2,2.6C371.9,20.6,371.9,21.1,372,22.3z"/><path fill="#FFFFFF" d="M370.1,46.8c-6.3-1.5-12.7-1.4-19.1-1.2c-1,0-2.1,0.2-3.3,0.3c2.4-4.7,6-8.5,6.1-13.9c-1.3,0.3-2.4,0.8-3.2,1.6c-6.5,6.4-11.8,13.8-15.9,21.9c-3.3,6.4-8.3,9.9-15.3,11c-5.4,0.8-10.7,1.8-16.5,2.8c-1.7-1.7-1.7-1.7-4.7-1.5c-9.9,0.6-18.6,3.9-26.4,10c-2.8,2.2-6.6,3.3-10.1,4.4c-1.8,0.6-3.8-0.1-4.2-2.3c-0.3-1.7-0.1-3.6-0.1-5.4c4.6-0.5,8.9-1.7,12.4-4.6c3.8-3.1,3.7-9-0.2-11.4c-3-1.9-6.9-1.5-10.4,1c-3.1,2.3-5.1,5.4-6.2,9.1c-0.4,1.3-1,1.7-2.4,1.7c-4.4-0.1-6.1-1.5-7.6-5.8c-0.3-0.8-1.4-1.8-1.9-1.7c-0.9,0.2-1.9,1.1-2.3,1.9c-0.4,0.7,0.1,1.9-0.1,2.8c-0.3,1.6-0.4,3.4-1.3,4.6c-4.9,5.9-10.9,10.1-18.5,11.8c-2.4,0.5-3.7-0.3-4-2.7c-0.2-1.7-0.5-3.5-0.2-5.2c0.4-2.3,0.7-5.3,2.2-6.7c12-10.7,21.9-23,29.2-37.3c3.9-7.7,6.8-15.7,7.3-24.4c0.2-2.9-0.4-5.5-2.8-7.5c-0.8,0-1.6,0-2.4,0c-2.2,2.2-4.9,4.1-6.7,6.7c-4.9,7.3-9.6,14.8-13.9,22.4c-6.8,12.3-12.9,24.9-16.6,38.6c-0.2,0.7-0.7,1.4-1.3,1.9c-5.6,4.3-11.5,7.9-18.2,10.2c-1.9,0.7-4,1.1-6,1.3c-2.5,0.2-3.6-1.1-3.2-3.5c0.4-2.2,0.9-4.3,1.5-6.5c0.2-0.7,0.7-1.4,1.2-1.9c1.6-1.5,3.2-2.8,4.9-4.2c9.6-8.1,16.5-18,19.8-30.2c0.7-2.6,1-5.5,0.9-8.2c0-1.3-1.2-3.1-2.4-3.7c-0.8-0.4-2.8,0.5-3.6,1.4c-3.1,3.4-6.3,6.8-8.8,10.6c-7,10.5-12,22-16.5,33.7c-0.4,1-1.1,2.3-2,2.8c-6.7,3.9-13.5,7.7-20.4,11.3c-1.8,1-4.1,1.1-6.4,1.7c1.5-2.4,3-4.2,3.7-6.3c1.4-3.8-0.9-7-4.4-6.8c-7.1,0.3-11,5.5-9.3,12.5c-1.2,0.2-2.5,0.5-3.7,0.6c-2.8,0.1-5.6,0.3-8.4,0.2c-1.4,0-2-1-1.8-2.5c0.2-1.6,0.2-3.3,0.3-5c0.2-1.8-0.8-2.8-2.5-2.8c-1.8,0-3.6,0.2-5.3,0.7c-2.5,0.7-4.8,1.6-7.8,2.7c1.2-3.3,2.4-6,3.2-8.8c1.1-3.8,3.3-6.7,6.1-9.4c9.8-9.7,17.9-20.8,24-33.2c2.7-5.4,4.7-11.1,4.5-17.3c-0.1-5.1-2.6-8.1-6.5-7.4c-1.9,0.4-4,1.5-5.2,3c-2.1,2.5-4,5.4-5.3,8.4c-7.1,16.3-14,32.6-21.1,48.9c-0.5,1.1-1.2,2.3-2.1,3c-7.4,6-15.4,11-24.5,13.9c-4.6,1.5-9.3,2.5-14.1,3.2c-3.3,0.5-4.5-1.1-4-4.5c0.5-3.6,1.5-6.9,3.9-9.8c5.4-6.6,9.9-13.8,13.5-21.5c0.4-0.8,1.6-1.7,2.4-1.8c6.5-0.4,13.1-0.7,19.6-0.9c3-0.1,6,0.3,9.3,0.4c-0.8-2.1-1.3-2.5-3.5-2.9c-6.8-1.1-13.5-1.4-20.4-0.7c-1.7,0.2-3.5,0-5.4,0c0.3-0.9,0.6-1.6,0.6-2.4c0-1.3-0.2-2.6-0.3-3.9c-1.3,0.3-2.8,0.4-3.8,1c-4.6,2.9-7.2,7.5-9,12.5c-1.3,3.6-2.4,7.2-3.9,10.7c-3.9,9-8.9,16.9-19.5,19.2c-1.3,0.3-2.6,0.7-3.9,0.9c-4.3,0.7-8.6,1.4-13.2,2.1c2.3-6.5,0.6-11.4-4.2-13c-5.3-1.8-11.4,1-13.1,6c-0.9,2.7-0.9,5.4,1.1,7.4c1.8,1.8,4.2,2.9,6.2,4.2c-3.8,3.2-7.5,4.9-11,4.7c-4.6-0.2-7.6-3.9-6-8.2c1.4-3.9,3.3-7.7,5.6-11.2c2-3.1,4.9-5.6,7.3-8.4c1.8-2,1.5-3.8-0.7-4.3c-7.2-1.6-9.6-9.6-8.4-14.8c1.4-6,4.9-10.7,10.2-13.8c3.5-2,7.2-3.7,11-5c7.6-2.7,15.4-4.9,23.7-4c2.2,0.3,4.6,0.8,6.6,1.8c4.1,2,6.1,7.1,4.7,10.9c-1.1,3-5.2,4.9-8.3,3.9c-2-0.6-2.2-1.8-1.3-6c0.2-0.9-0.4-2-0.7-3c-1,0.4-2.4,0.5-3,1.3c-2.4,2.9-1.1,8.9,2.1,10.8c5.3,3.1,14-0.7,15.3-6.7c1.4-6.7-1.9-12.9-8.3-15.5c-5.6-2.3-11.5-2.1-17.3-1.3c-8.4,1.1-16.7,3-24,7.7c-6.9,4.4-12.9,9.8-15.3,18.1c-2.2,7.6,0.2,13.3,7.2,17.2c0.2,0.1,0.3,0.4,0.5,0.7C7.3,66.2,2.9,73.2,0,81.1c0,1.9,0,3.8,0,5.7c2,4,5.9,4.9,9.5,6.2c1.9,0,3.8,0,5.7,0c4.5-1.4,9.2-2.9,12.5-6.4c2.2-2.3,4.8-2.5,7.4-2.7c8.6-0.5,16.9-2.3,24.6-6.3c0.3-0.2,0.7-0.3,1-0.4c0.1,0.2,0.2,0.2,0.2,0.3c-0.5,8.4,2.8,9.4,10.8,8.6c10.9-1.2,20.5-6.3,29.9-11.7c1.8-1,3.5-2.1,5.8-3c-1.4,3.2-2.8,6.5-4.2,9.7c-0.2,0.4-0.6,0.8-0.7,1.2c-0.2,1.2-0.3,2.4-0.5,3.6c1.4,0,2.9,0.3,4.2-0.1c1-0.3,1.6-1.5,2.6-2c3.3-1.8,6.6-3.8,10-5.2c2.5-1,3.4,0,3.2,2.7c-0.4,4.9,1.8,7.6,6.7,7.2c5.3-0.4,10.5-1.4,15.7-2.1c0.5-0.1,1.1-0.4,1.6-0.2c6.6,1.6,12.4-0.7,18-3.6c4.3-2.2,8.4-4.8,12.4-7.2c0,1.9-0.1,3.9,0,5.8c0.2,3.2,2,4.7,5.2,4.4c9-0.7,16.8-4.5,24.2-9.1c0.9-0.6,1.9-1.2,2.8-1.8c0.1-0.1,0.3,0,0.6,0c0,3.1-0.3,6.2,0.1,9.2c0.5,4.6,2.6,5.9,7.2,4.7c8.6-2.1,16.2-5.9,22.1-12.7c0.6-0.7,1.2-1.5,1.7-2.3c0.5-0.8,0.8-1.7,1.1-2.3c3.3,1.1,6.4,2.2,9.7,3.2c0,1.4-0.1,3,0,4.5c0.6,6.5,4.1,9,10.6,7.5c6-1.4,10.8-4.7,15.5-8.5c5.8-4.6,12.7-6.3,19.8-7.2c0.5-0.1,1.6,0.9,1.6,1.5c0.1,1.2-0.2,2.5-0.6,3.7c-1,2.9-2.2,5.8-3.2,8.7c-0.2,0.7,0.4,1.7,0.6,2.5c0.8-0.4,1.8-0.6,2.3-1.2c0.8-1.2,1.3-2.6,1.7-3.9c2.1-6.7,6.4-10.6,13.5-11.6c5.3-0.8,10.5-2.1,15.7-3.2c-0.7,2.8-1.5,5.8-2.3,8.8c-0.4,1.8-0.2,3.5,1.5,4.7c1.7,1.2,3.4,0.5,4.9-0.5c4.2-2.6,8.2-5.4,12.5-7.8c1.7-1,3.7-1.3,5.6-1.7c0.5-0.1,1.3,0.1,1.8,0.4c2.4,1.6,1.7,4.1,1.6,6.3c-0.1,1.9-1.7,2.8-3.3,2.8c-2.3-0.1-4.6-0.7-6.9-1.1c-0.6-0.1-1.3-0.1-1.9-0.1c0.1,0.6,0,1.4,0.4,1.9c1.7,2.7,7.5,4.2,11.5,3.1c3.2-0.9,5-3.5,5-7.5c0-1.6-0.2-3.2-0.6-4.7c-1-3.9-3.8-5.9-7.8-5.3c-2.2,0.3-4.5,1.1-6.5,2.1c-4.2,2.2-8.3,4.7-12.8,7.2c0-1-0.1-1.9,0-2.7c0.6-4.8,2.1-9.2,5.3-13c2-2.4,4.1-4.7,5.6-7.4c1.8-3.3,4.6-4.3,8-4.3c6,0.2,12,0.5,18,0.7c1.6,0,3.1-0.3,4.7-0.4c0-0.3,0-0.6,0-1C372,47.7,371.1,47,370.1,46.8z M265.8,61.4c0.8-0.1,2.1,0.4,2.6,1c0.4,0.6,0.4,2.1-0.1,2.8c-2.4,3.7-6.1,4.9-10.4,4.9C258.5,65.4,261.7,61.9,265.8,61.4z M248.9,6.6c0.7,2.8,0.1,5.6-0.6,8.3c-3.3,12-9.4,22.6-17,32.4c-4.1,5.2-8.5,10.1-13,15C221,49.3,242.6,7,248.9,6.6z M207.8,28.2c-1.8,14.8-10,25.1-20.5,34.2C188.4,55.9,203,31,207.8,28.2z M124,41.8c3.7-9,7.5-18,11.5-26.9c1.4-3.1,3.5-5.8,5.6-8.5c0.7-0.9,2.7-1.6,3.6-1.3c0.9,0.3,1.5,2.3,1.5,3.5c-0.1,5.8-2.1,11.2-4.5,16.3c-4.7,9.8-15.7,24.7-22.9,30.7C120.7,50.9,122.2,46.3,124,41.8z M24.3,80.5c-3.3,0-5.1-1.7-5.2-4.8c0-2.7,2.3-4.9,5.3-4.9c3.7,0,5.1,1.2,5.1,4.6C29.5,79.1,28,80.5,24.3,80.5z M147.4,81.3c-0.5,0.4-1.7,0.5-2.1,0.2c-0.7-0.6-1.3-1.6-1.3-2.5c0-2.3,2.8-4.8,5-4.9c2.1-0.1,3.2,1.5,2.1,3.3C150.1,78.9,148.7,80.2,147.4,81.3z"/></svg>